<svg width="709" height="133" viewBox="0 0 709 133" fill="none" xmlns="http://www.w3.org/2000/svg">
<path d="M54.1992 0H170.16L152.69 32.1469L54.1992 31.0871V0Z" fill="#3399CC"/>
<path d="M57.7285 3.78198H164.362L150.652 28.3649L57.7285 27.5545V3.78198Z" fill="#3399CC"/>
<path d="M0 38.7907H149.237L136.364 62.9046H0V38.7907Z" fill="#3399CC"/>
<path d="M3.27734 42.5727H144.447L134.644 59.5917H3.27734V42.5727Z" fill="#3399CC"/>
<path d="M54.1992 85.7252H124.784L114.15 107.787L54.1992 107.059V85.7252Z" fill="#F4A460"/>
<path d="M56.3477 88.3206H121.255L112.91 105.191L56.3477 104.635V88.3206Z" fill="#F4A460"/>
<path d="M54.1992 114.72H109.659L101.304 133L54.1992 132.397V114.72Z" fill="#F4A460"/>
<path d="M55.8872 116.871H106.886L100.329 130.849L55.8872 130.389V116.871Z" fill="#F4A460"/>
<path d="M197.114 106.679V34.6788H224.114C229.645 34.6788 234.286 35.7101 238.036 37.7726C241.809 39.8351 244.657 42.671 246.579 46.2804C248.524 49.8663 249.497 53.9445 249.497 58.5148C249.497 63.132 248.524 67.2335 246.579 70.8195C244.633 74.4054 241.762 77.2296 237.965 79.2921C234.168 81.3312 229.493 82.3507 223.938 82.3507H206.043V71.6281H222.18C225.415 71.6281 228.063 71.0656 230.125 69.9406C232.188 68.8156 233.711 67.2687 234.696 65.2999C235.704 63.3312 236.208 61.0695 236.208 58.5148C236.208 55.9601 235.704 53.7101 234.696 51.7648C233.711 49.8195 232.176 48.3077 230.09 47.2296C228.028 46.1281 225.368 45.5773 222.11 45.5773H210.157V106.679H197.114ZM261.253 106.679V52.6788H273.98V106.679H261.253ZM267.652 45.0148C265.636 45.0148 263.902 44.3468 262.448 43.0109C260.995 41.6515 260.269 40.0226 260.269 38.1241C260.269 36.2023 260.995 34.5734 262.448 33.2374C263.902 31.878 265.636 31.1984 267.652 31.1984C269.691 31.1984 271.425 31.878 272.855 33.2374C274.308 34.5734 275.034 36.2023 275.034 38.1241C275.034 40.0226 274.308 41.6515 272.855 43.0109C271.425 44.3468 269.691 45.0148 267.652 45.0148ZM311.611 107.734C306.221 107.734 301.592 106.55 297.725 104.183C293.881 101.816 290.916 98.546 288.83 94.3741C286.768 90.1788 285.736 85.3507 285.736 79.8898C285.736 74.4054 286.791 69.5656 288.9 65.3702C291.01 61.1515 293.986 57.8702 297.83 55.5265C301.697 53.1593 306.268 51.9757 311.541 51.9757C315.924 51.9757 319.803 52.7843 323.178 54.4015C326.576 55.9952 329.283 58.257 331.299 61.1866C333.314 64.0929 334.463 67.4913 334.744 71.382H322.58C322.088 68.7804 320.916 66.6124 319.064 64.8781C317.236 63.1202 314.787 62.2413 311.717 62.2413C309.115 62.2413 306.83 62.9445 304.861 64.3507C302.893 65.7335 301.357 67.7257 300.256 70.3273C299.178 72.9288 298.639 76.046 298.639 79.6788C298.639 83.3585 299.178 86.5226 300.256 89.171C301.334 91.796 302.846 93.8234 304.791 95.2531C306.76 96.6593 309.068 97.3624 311.717 97.3624C313.592 97.3624 315.268 97.0109 316.744 96.3077C318.244 95.5812 319.498 94.5382 320.506 93.1788C321.514 91.8195 322.205 90.1671 322.58 88.2218H334.744C334.439 92.0421 333.314 95.4288 331.369 98.382C329.424 101.312 326.775 103.609 323.424 105.273C320.072 106.913 316.135 107.734 311.611 107.734ZM357.786 89.7335L357.751 74.3702H359.79L379.196 52.6788H394.067L370.196 79.257H367.559L357.786 89.7335ZM346.184 106.679V34.6788H358.911V106.679H346.184ZM380.075 106.679L362.497 82.1046L371.075 73.1398L395.298 106.679H380.075ZM412.029 126.929C410.294 126.929 408.689 126.788 407.212 126.507C405.759 126.249 404.599 125.944 403.732 125.593L406.685 115.679C408.537 116.218 410.189 116.476 411.642 116.452C413.095 116.429 414.373 115.972 415.474 115.081C416.599 114.214 417.548 112.761 418.322 110.722L419.412 107.804L399.83 52.6788H413.33L425.775 93.4601H426.337L438.818 52.6788H452.353L430.732 113.218C429.724 116.077 428.388 118.526 426.724 120.566C425.06 122.628 423.021 124.198 420.607 125.276C418.216 126.378 415.357 126.929 412.029 126.929ZM462.712 106.679V34.6788H508.837V45.6124H475.755V65.1593H505.673V76.0929H475.755V106.679H462.712ZM533.874 34.6788V106.679H521.148V34.6788H533.874ZM563.49 107.769C560.068 107.769 556.986 107.159 554.244 105.941C551.525 104.698 549.369 102.87 547.775 100.456C546.205 98.0421 545.42 95.0656 545.42 91.5265C545.42 88.4796 545.982 85.9601 547.107 83.9679C548.232 81.9757 549.767 80.382 551.713 79.1866C553.658 77.9913 555.849 77.089 558.287 76.4796C560.748 75.8468 563.291 75.3898 565.916 75.1085C569.08 74.7804 571.646 74.4874 573.615 74.2296C575.584 73.9484 577.013 73.5265 577.904 72.964C578.818 72.378 579.275 71.4757 579.275 70.257V70.046C579.275 67.3976 578.49 65.3468 576.92 63.8937C575.349 62.4406 573.088 61.714 570.135 61.714C567.017 61.714 564.545 62.3937 562.717 63.7531C560.912 65.1124 559.693 66.7179 559.06 68.5695L547.178 66.882C548.115 63.6007 549.662 60.8585 551.818 58.6554C553.974 56.4288 556.611 54.7648 559.728 53.6632C562.846 52.5382 566.291 51.9757 570.064 51.9757C572.666 51.9757 575.256 52.2804 577.834 52.8898C580.412 53.4991 582.767 54.507 584.9 55.9132C587.033 57.296 588.744 59.1827 590.033 61.5734C591.346 63.964 592.002 66.9523 592.002 70.5382V106.679H579.767V99.2609H579.346C578.572 100.761 577.482 102.167 576.076 103.48C574.693 104.769 572.947 105.812 570.838 106.609C568.752 107.382 566.303 107.769 563.49 107.769ZM566.795 98.4171C569.349 98.4171 571.564 97.9132 573.439 96.9054C575.314 95.8741 576.756 94.5148 577.763 92.8273C578.795 91.1398 579.31 89.2999 579.31 87.3077V80.9445C578.912 81.2726 578.232 81.5773 577.271 81.8585C576.334 82.1398 575.279 82.3859 574.107 82.5968C572.935 82.8077 571.775 82.9952 570.627 83.1593C569.478 83.3234 568.482 83.464 567.638 83.5812C565.74 83.839 564.041 84.2609 562.541 84.8468C561.041 85.4327 559.857 86.2531 558.99 87.3077C558.123 88.339 557.689 89.6749 557.689 91.3156C557.689 93.6593 558.545 95.4288 560.256 96.6241C561.967 97.8195 564.146 98.4171 566.795 98.4171ZM632.754 52.6788V62.5226H601.711V52.6788H632.754ZM609.375 39.7413H622.101V90.4366C622.101 92.1476 622.359 93.4601 622.875 94.3741C623.414 95.2648 624.117 95.8741 624.984 96.2023C625.851 96.5304 626.812 96.6945 627.867 96.6945C628.664 96.6945 629.39 96.6359 630.046 96.5187C630.726 96.4015 631.242 96.296 631.593 96.2023L633.738 106.151C633.058 106.386 632.086 106.644 630.82 106.925C629.578 107.206 628.054 107.37 626.25 107.417C623.062 107.511 620.191 107.03 617.636 105.976C615.082 104.898 613.054 103.234 611.554 100.984C610.078 98.7335 609.351 95.921 609.375 92.546V39.7413ZM686.293 66.9523L674.692 68.2179C674.364 67.046 673.789 65.9445 672.969 64.9132C672.172 63.882 671.094 63.0499 669.735 62.4171C668.375 61.7843 666.711 61.4679 664.743 61.4679C662.094 61.4679 659.868 62.0421 658.063 63.1905C656.282 64.339 655.403 65.8273 655.426 67.6554C655.403 69.2257 655.977 70.5031 657.149 71.4874C658.344 72.4718 660.313 73.2804 663.055 73.9132L672.266 75.882C677.375 76.9835 681.172 78.7296 683.657 81.1202C686.164 83.5109 687.43 86.6398 687.453 90.507C687.43 93.9054 686.434 96.9054 684.465 99.507C682.52 102.085 679.813 104.101 676.344 105.554C672.875 107.007 668.891 107.734 664.391 107.734C657.782 107.734 652.461 106.351 648.43 103.585C644.399 100.796 641.996 96.9171 641.223 91.9484L653.633 90.7531C654.196 93.1906 655.391 95.0304 657.219 96.2726C659.047 97.5148 661.426 98.1359 664.356 98.1359C667.379 98.1359 669.805 97.5148 671.633 96.2726C673.485 95.0304 674.41 93.4952 674.41 91.6671C674.41 90.1202 673.813 88.8429 672.618 87.8351C671.446 86.8273 669.618 86.0538 667.133 85.5148L657.922 83.5812C652.743 82.5031 648.91 80.6866 646.426 78.132C643.942 75.5538 642.711 72.296 642.735 68.3585C642.711 65.0304 643.614 62.1476 645.442 59.7101C647.293 57.2491 649.86 55.3507 653.141 54.0148C656.446 52.6554 660.254 51.9757 664.567 51.9757C670.895 51.9757 675.875 53.3234 679.508 56.0187C683.164 58.714 685.426 62.3585 686.293 66.9523Z" fill="#3399CC"/>
</svg>
